{"title":"FX2, The Deadly Art of Illusion DVD9rip English Klam","uid":5921901,"size":1683704136,"categoryP":"video","categoryS":"movies","magnet":"?xt=urn:btih:16d573baae42bfce0089c8f94be800475335184a&amp;dn=FX2%2C+The+Deadly+Art+of+Illusion+DVD9rip+English+Klam&amp;tr=udp%3A%2F%2Ftracker.openbittorrent.com%3A80&amp;tr=udp%3A%2F%2Fopen.demonii.com%3A1337&amp;tr=udp%3A%2F%2Ftracker.coppersurfer.tk%3A6969&amp;tr=udp%3A%2F%2Fexodus.desync.com%3A6969","seeders":0,"leechers":1,"uploader":"Klambake","files":5,"time":1288450215,"description":"With: Bryan Brown, Brian Dennehy en Rachel Ticotin\n\nF/X man Rollie Tyler is now a toymaker. Mike, the ex-husband of his girlfriend, Kim is a cop. He asks Rollie to help him catch a killer. And the operation was going well when some unknown man kills both the killer and Mike. Mike's boss, Silak says it was the killer who killed Mike but Rollie knows it wasn't. Obviously Silak is involved with Mike's death, so he calls on Leo McCarthy, the cop from the last movie, who is now a P.I. for help. And they discover it's not just Silak whom they have to worry about.\n\nGeneral:\n\nComplete name                    : Klambake\\FX2\\FX2.avi\nFormat                           : AVI\nFormat/Info                      : Audio Video Interleave\nFile size                        : 1.57 GiB\nDuration                         : 1h 43mn\nOverall bit rate                 : 2 167 Kbps\n\nVideo:\n\nFormat                           : MPEG-4 Visual\nFormat profile                   : Simple@L3\nFormat settings, BVOP            : No\nFormat settings, QPel            : No\nFormat settings, GMC             : No warppoints\nFormat settings, Matrix          : Default (H.263)\nCodec ID                         : XVID\nCodec ID/Hint                    : XviD\nDuration                         : 1h 43mn\nBit rate                         : 1 964 Kbps\nWidth                            : 720 pixels\nHeight                           : 576 pixels\nDisplay aspect ratio             : 5:4\nFrame rate                       : 25.000 fps\nStandard                         : PAL\nColor space                      : YUV\nChroma subsampling               : 4:2:0\nBit depth                        : 8 bits\nScan type                        : Progressive\nBits/(Pixel*Frame)               : 0.189\nStream size                      : 1.42 GiB (91%)\nWriting library                  : XviD 1.1.2 (UTC 2006-11-01)\n\nAudio:\n\nFormat                           : AC-3\nFormat/Info                      : Audio Coding 3\nFormat profile                   : Dolby Digital\nMode extension                   : CM (complete main)\nCodec ID                         : 2000\nDuration                         : 1h 43mn\nBit rate mode                    : Constant\nBit rate                         : 192 Kbps\nChannel(s)                       : 2 channels\nChannel positions                : Front: L R\nSampling rate                    : 48.0 KHz\nBit depth                        : 16 bits\nStream size                      : 142 MiB (9%)\nAlignment                        : Aligned on interleaves\nInterleave, duration             : 32 ms (0.80 video frame)\nInterleave, preload duration     : 64 ms","torrent":{"xt":"urn:btih:16d573baae42bfce0089c8f94be800475335184a","amp;dn":"FX2%2C+The+Deadly+Art+of+Illusion+DVD9rip+English+Klam","amp;tr":["udp%3A%2F%2Ftracker.openbittorrent.com%3A80","udp%3A%2F%2Fopen.demonii.com%3A1337","udp%3A%2F%2Ftracker.coppersurfer.tk%3A6969","udp%3A%2F%2Fexodus.desync.com%3A6969"],"infoHash":"16d573baae42bfce0089c8f94be800475335184a","infoHashBuffer":{"type":"Buffer","data":[22,213,115,186,174,66,191,206,0,137,200,249,75,232,0,71,83,53,24,74]},"announce":[],"urlList":[]}}